{"glyphs":{":":{"x_min":0,"x_max":175,"ha":175,"o":"m 82 270 q 84 278 90 284 q 97 290 105 290 q 113 290 118 284 q 124 278 122 270 q 121 262 114 256 q 107 250 99 250 q 91 250 86 256 q 81 262 82 270 z m 47 20 q 48 28 55 34 q 62 40 70 40 q 78 40 83 34 q 88 28 87 20 q 85 12 78 6 q 72 0 64 0 q 56 0 50 6 q 45 12 47 20 z"},"$":{"x_min":0,"x_max":567,"ha":567,"o":"m 399 546 l 414 653 q 397 667 367 678 q 337 688 293 690 l 249 380 q 284 369 318 357 q 353 345 379 324 q 405 304 419 271 q 433 238 427 186 q 422 142 401 107 q 380 72 348 46 q 317 21 277 7 q 237 -7 194 -8 l 186 -68 l 173 -68 l 181 -8 q 143 -7 114 1 q 84 9 62 20 q 41 31 27 43 q 13 55 6 64 l 20 164 l 34 164 l 21 74 q 45 45 84 26 q 123 7 183 6 l 234 367 q 204 376 176 386 q 149 397 128 414 q 108 430 97 454 q 86 479 89 517 q 92 550 106 582 q 119 615 143 642 q 167 669 202 686 q 237 703 282 704 l 290 764 l 303 764 l 295 704 q 311 704 329 702 q 347 699 365 694 q 383 689 400 681 q 416 673 429 660 l 413 546 z m 412 182 q 419 230 406 261 q 394 292 370 312 q 346 331 314 342 q 281 353 247 363 l 196 6 q 233 7 270 20 q 306 34 336 56 q 366 79 386 111 q 407 143 412 182 z m 105 530 q 100 494 109 470 q 118 446 137 430 q 156 413 182 402 q 207 392 236 383 l 280 690 q 242 689 212 676 q 181 662 158 640 q 136 617 122 588 q 109 560 105 530 z"},"?":{"x_min":0,"x_max":452,"ha":452,"o":"m 74 596 q 71 597 68 598 q 64 598 61 599 q 75 628 96 652 q 118 677 144 694 q 171 712 202 722 q 233 732 265 732 q 306 732 340 716 q 374 701 396 674 q 419 648 430 612 q 440 577 434 537 q 426 483 394 442 q 362 402 312 370 q 291 356 273 346 q 255 337 240 325 q 226 313 216 294 q 207 275 202 242 l 191 164 l 177 164 l 191 261 q 195 292 210 310 q 224 329 244 344 q 265 358 290 372 q 316 387 343 408 q 378 435 396 468 q 415 500 420 537 q 425 576 416 609 q 406 642 385 666 q 364 691 332 704 q 301 718 263 718 q 233 718 204 709 q 176 700 151 684 q 126 668 106 646 q 86 623 74 596 z m 165 25 q 158 25 152 31 q 147 37 149 45 q 150 54 156 60 q 163 65 170 65 q 178 65 184 60 q 189 54 188 45 q 186 37 180 31 q 173 25 165 25 z"},"<":{"x_min":0,"x_max":680,"ha":680,"o":"m 519 1 l 517 -15 q 416 48 316 112 q 216 175 115 238 q 233 301 351 364 q 469 428 588 491 l 586 475 q 474 415 364 356 q 253 298 141 238 q 235 178 330 120 q 424 61 519 1 z"},"'":{"x_min":0,"x_max":147,"ha":147,"o":"m 49 472 l 84 720 l 102 720 q 92 657 82 596 q 73 535 63 472 z"},"=":{"x_min":0,"x_max":708,"ha":708,"o":"m 593 164 l 591 150 l 85 150 l 87 164 z m 620 358 l 618 344 l 112 344 l 114 358 z"},"a":{"x_min":0,"x_max":532,"ha":532,"o":"m 62 188 q 68 228 88 264 q 108 300 138 326 q 168 352 205 368 q 242 383 283 383 q 314 383 340 374 q 367 365 388 348 q 410 332 425 310 q 440 287 447 260 q 451 289 456 318 q 462 346 467 375 l 477 375 l 426 14 l 499 14 l 497 0 l 410 0 l 418 54 q 420 70 423 86 q 426 101 428 117 q 399 63 346 28 q 292 -6 229 -6 q 188 -6 155 9 q 122 24 100 50 q 77 77 66 112 q 56 147 62 188 z m 76 188 q 71 150 80 118 q 89 85 110 60 q 131 36 162 22 q 192 8 230 8 q 267 8 302 22 q 338 36 366 60 q 394 85 413 118 q 432 150 437 188 q 442 225 432 258 q 423 291 402 316 q 381 341 350 355 q 318 369 281 369 q 243 369 208 355 q 174 341 146 316 q 118 291 100 258 q 81 225 76 188 z"},"L":{"x_min":0,"x_max":566,"ha":566,"o":"m 36 14 l 113 14 l 208 686 l 131 686 l 133 700 l 307 700 l 305 686 l 222 686 l 127 14 l 518 14 l 538 154 l 552 154 l 531 0 l 35 0 z"},"3":{"x_min":0,"x_max":515,"ha":515,"o":"m 183 361 l 434 636 l 161 636 l 151 568 l 137 568 l 149 650 l 468 650 l 233 398 q 279 400 318 386 q 356 371 382 344 q 409 317 422 278 q 434 240 428 195 q 422 153 400 116 q 379 79 348 52 q 316 24 276 8 q 237 -8 195 -8 q 150 -8 114 10 q 79 28 56 58 l 67 71 q 87 42 120 24 q 152 6 194 6 q 233 6 270 21 q 308 36 338 62 q 368 88 388 122 q 408 157 414 195 q 420 234 409 268 q 398 303 376 328 q 353 354 320 369 q 286 384 247 384 q 231 384 214 378 q 198 372 183 361 z"},";":{"x_min":0,"x_max":201,"ha":201,"o":"m 114 270 q 115 278 122 284 q 128 290 136 290 q 144 290 150 284 q 155 278 154 270 q 152 262 146 256 q 139 250 131 250 q 123 250 118 256 q 112 262 114 270 z m 112 86 q 83 34 54 -17 q 26 -68 -2 -120 l -16 -120 q 10 -68 36 -17 q 62 34 89 86 z"},"J":{"x_min":0,"x_max":255,"ha":255,"o":"m 93 700 l 278 700 l 192 90 q 184 34 164 -8 q 143 -51 114 -80 q 84 -109 48 -125 q 13 -141 -24 -142 l -23 -128 q 14 -126 47 -110 q 80 -95 107 -66 q 134 -38 152 2 q 171 42 178 93 l 262 686 l 91 686 z"},"V":{"x_min":0,"x_max":844,"ha":844,"o":"m 137 700 l 311 700 l 309 686 l 233 686 q 280 519 326 355 q 373 191 421 25 l 426 0 l 439 25 q 532 191 624 355 q 717 519 811 686 l 735 686 l 737 700 l 911 700 l 909 686 l 826 686 q 725 505 624 326 q 523 148 422 -32 q 371 148 320 326 q 268 505 217 686 l 135 686 z"},"\"":{"x_min":0,"x_max":293,"ha":293,"o":"m 178 472 l 213 720 l 231 720 q 221 657 212 596 q 202 535 192 472 z m 45 472 l 80 720 l 98 720 q 88 657 78 596 q 69 535 59 472 z"},"7":{"x_min":0,"x_max":469,"ha":469,"o":"m 460 650 l 77 0 l 59 0 l 435 636 l 71 636 l 62 568 l 48 568 l 59 650 z"},"S":{"x_min":0,"x_max":478,"ha":478,"o":"m 56 64 l 70 164 l 84 164 l 71 74 q 96 45 136 26 q 175 6 237 6 q 276 6 314 18 q 351 31 382 54 q 414 77 435 110 q 456 142 462 182 q 469 228 458 258 q 446 289 424 308 q 401 328 370 340 q 340 351 308 360 q 275 370 243 380 q 211 391 187 408 q 163 424 150 450 q 136 476 139 517 q 142 550 156 584 q 170 617 195 644 q 220 671 256 688 q 291 704 338 704 q 354 704 373 702 q 392 700 411 696 q 430 691 448 682 q 465 673 479 660 l 463 546 l 449 546 l 464 653 q 447 668 414 679 q 382 690 334 690 q 295 690 264 676 q 233 663 210 640 q 187 618 173 590 q 159 561 155 530 q 149 489 162 464 q 174 438 197 422 q 220 405 252 395 q 283 385 316 375 q 349 365 380 352 q 412 340 436 320 q 459 299 471 267 q 483 235 477 186 q 472 142 450 106 q 429 70 396 44 q 364 19 323 6 q 282 -8 238 -8 q 198 -8 168 0 q 137 8 115 20 q 93 31 78 43 q 64 55 56 64 z"},"}":{"x_min":0,"x_max":320,"ha":320,"o":"m 355 311 l 351 287 q 319 285 300 264 q 281 244 270 216 q 260 189 256 161 q 251 133 248 116 l 228 -30 q 222 -76 211 -100 q 200 -125 186 -136 q 173 -146 157 -147 q 141 -148 125 -148 l 88 -148 l 90 -134 l 147 -134 q 178 -134 192 -108 q 207 -82 215 -22 l 241 165 q 246 199 256 222 q 266 245 278 260 q 290 276 303 285 q 316 294 326 299 q 314 306 304 316 q 293 326 286 344 q 280 363 278 393 q 277 423 284 470 l 305 620 q 313 680 306 706 q 300 732 269 732 l 212 732 l 214 746 l 251 746 q 267 746 282 744 q 298 743 308 732 q 319 722 322 698 q 326 674 320 628 l 300 482 q 298 470 296 454 q 293 437 292 418 q 292 399 294 380 q 295 362 302 347 q 309 332 322 322 q 334 312 355 311 z"},"Z":{"x_min":0,"x_max":629,"ha":629,"o":"m 618 174 l 594 0 l 35 0 l 36 14 l 641 686 l 148 686 l 155 735 l 171 735 l 166 700 l 663 700 l 661 686 l 56 14 l 581 14 l 604 174 z"},"x":{"x_min":0,"x_max":488,"ha":488,"o":"m 87 375 l 261 375 l 259 361 l 171 361 l 267 198 l 407 361 l 329 361 l 331 375 l 505 375 l 503 361 l 424 361 l 274 186 q 299 142 324 100 q 350 58 375 14 l 454 14 l 453 0 l 279 0 l 280 14 l 359 14 q 335 56 312 96 q 288 135 264 175 q 229 134 195 94 q 161 54 126 14 l 210 14 l 209 0 l 35 0 l 36 14 l 108 14 q 146 57 182 100 q 219 143 257 187 q 231 231 205 274 q 179 316 153 361 l 85 361 z"},")":{"x_min":0,"x_max":400,"ha":400,"o":"m 279 292 q 268 217 244 149 q 221 81 190 23 q 158 -35 122 -82 q 86 -130 50 -163 l 50 -140 q 83 -107 117 -62 q 151 -17 180 38 q 210 93 232 157 q 255 221 265 292 q 275 363 270 427 q 266 491 252 546 q 238 601 216 646 q 195 691 171 724 q 173 730 174 736 q 175 741 177 747 q 204 714 227 666 q 250 619 265 561 q 280 503 284 435 q 289 367 279 292 z"},"&":{"x_min":0,"x_max":700,"ha":700,"o":"m 480 375 l 600 375 l 598 361 l 492 361 l 480 274 q 477 249 474 224 q 471 200 466 176 q 460 152 450 129 q 440 106 424 84 l 470 -11 l 458 -19 l 414 72 q 382 36 338 14 q 295 -7 246 -7 q 205 -7 172 8 q 139 23 116 50 q 94 76 84 111 q 73 146 79 187 q 84 223 101 256 q 118 288 144 314 q 169 339 201 356 q 233 373 269 379 l 213 496 q 199 526 196 558 q 194 590 203 621 q 212 652 234 679 q 256 706 292 726 q 323 743 352 746 q 382 750 409 745 q 436 740 460 729 q 483 718 500 706 l 492 693 q 471 706 448 717 q 426 728 402 733 q 378 738 352 734 q 326 731 298 715 q 264 695 244 670 q 223 645 215 618 q 207 590 210 560 q 212 531 225 504 l 417 98 q 447 139 454 187 z m 93 187 q 88 149 98 116 q 107 84 128 60 q 149 35 180 21 q 210 7 248 7 q 295 7 337 28 q 379 50 408 85 l 275 366 q 241 362 210 346 q 179 331 154 307 q 130 283 114 252 q 98 221 93 187 z"},"_":{"x_min":0,"x_max":600,"ha":600,"o":"m 499 0 l 99 0 l 100 14 l 500 14 z"},"v":{"x_min":0,"x_max":590,"ha":590,"o":"m 90 375 l 251 375 l 249 361 l 175 361 q 207 273 238 184 q 270 96 302 8 q 354 90 412 180 q 470 270 527 361 l 469 361 l 471 375 l 610 375 l 608 361 l 542 361 q 480 264 419 169 q 358 74 298 -23 q 263 74 228 169 q 194 264 160 361 l 88 361 z"},"O":{"x_min":0,"x_max":786,"ha":786,"o":"m 85 349 q 95 423 132 488 q 170 554 225 602 q 280 651 349 680 q 418 708 492 708 q 566 708 628 680 q 689 651 731 602 q 773 554 792 488 q 811 423 801 349 q 790 275 753 210 q 716 145 660 96 q 605 48 536 20 q 466 -8 392 -8 q 318 -8 257 20 q 196 48 154 96 q 112 145 93 210 q 74 275 85 349 z m 99 348 q 89 277 107 215 q 125 153 164 106 q 204 60 262 33 q 320 6 390 6 q 461 6 528 33 q 596 60 650 106 q 704 153 740 216 q 777 278 787 349 q 797 420 778 482 q 760 545 720 592 q 679 639 620 666 q 561 694 490 694 q 419 694 353 666 q 287 639 234 592 q 180 545 144 482 q 109 419 99 348 z"},"(":{"x_min":0,"x_max":394,"ha":394,"o":"m 147 292 q 157 367 180 435 q 204 503 236 561 q 267 619 303 666 q 339 714 375 747 l 375 724 q 342 691 308 646 q 274 601 244 546 q 215 491 193 427 q 171 363 161 292 q 151 221 155 157 q 159 93 173 38 q 187 -17 208 -62 q 230 -107 254 -140 q 252 -146 251 -152 q 250 -157 248 -163 q 221 -130 198 -82 q 175 -35 160 23 q 145 81 140 149 q 136 217 147 292 z"},"C":{"x_min":0,"x_max":610,"ha":610,"o":"m 638 546 l 653 649 q 582 694 490 694 q 419 694 353 666 q 287 639 234 592 q 180 545 144 482 q 109 419 99 348 q 89 277 107 215 q 125 153 164 106 q 204 60 262 33 q 320 6 390 6 q 438 6 484 18 q 531 31 573 54 l 581 42 q 537 19 490 6 q 443 -8 392 -8 q 318 -8 257 20 q 196 48 154 96 q 112 145 93 210 q 74 275 85 349 q 95 423 132 488 q 170 554 225 602 q 280 651 349 680 q 418 708 492 708 q 543 708 587 695 q 631 682 668 658 l 652 546 z"},"W":{"x_min":0,"x_max":1220,"ha":1220,"o":"m 137 700 l 311 700 l 309 686 l 233 686 q 279 519 325 354 q 371 190 421 25 l 426 0 q 481 108 542 214 q 604 319 664 425 q 646 490 628 555 q 609 620 590 686 l 511 686 l 513 700 l 687 700 l 685 686 l 605 686 q 651 519 697 354 q 743 190 793 25 l 798 0 l 811 25 q 904 191 996 355 q 1089 519 1183 686 l 1111 686 l 1113 700 l 1287 700 l 1285 686 l 1198 686 q 1097 505 996 326 q 895 148 794 -32 l 675 385 l 669 407 q 606 297 545 188 q 484 78 422 -32 q 371 148 320 326 q 268 505 217 686 l 135 686 z"},"A":{"x_min":0,"x_max":828,"ha":828,"o":"m 36 14 l 110 14 q 212 194 314 372 q 415 551 516 732 q 567 551 618 372 q 668 194 719 14 l 794 14 l 793 0 l 619 0 l 620 14 l 704 14 q 683 89 662 164 q 641 240 619 316 l 297 316 q 254 240 212 164 q 170 89 126 14 l 210 14 l 209 0 l 35 0 z m 517 675 l 512 700 l 505 686 q 502 681 499 675 q 453 587 404 502 q 354 417 305 330 l 615 330 z"},"f":{"x_min":0,"x_max":281,"ha":281,"o":"m 36 14 l 97 14 l 146 361 l 85 361 l 87 375 l 148 375 l 168 518 q 176 573 196 616 q 217 659 246 688 q 276 717 312 732 q 348 748 386 750 l 384 736 q 350 736 317 721 q 284 706 256 678 q 229 650 210 610 q 190 571 183 522 l 162 375 l 292 375 l 290 361 l 160 361 l 111 14 l 210 14 l 209 0 l 35 0 z"},"Q":{"x_min":0,"x_max":808,"ha":808,"o":"m 99 348 q 89 277 107 215 q 125 153 164 106 q 204 60 262 33 q 320 6 390 6 q 461 6 528 33 q 596 60 650 106 q 704 153 740 216 q 777 278 787 349 q 797 420 778 482 q 760 545 720 592 q 679 639 620 666 q 561 694 490 694 q 419 694 353 666 q 287 639 234 592 q 180 545 144 482 q 109 419 99 348 z m 85 349 q 95 423 132 488 q 170 554 225 602 q 280 651 349 680 q 418 708 492 708 q 566 708 628 680 q 689 651 731 602 q 773 554 792 488 q 811 423 801 349 q 793 291 768 238 q 743 186 706 142 q 668 99 620 66 q 573 33 519 14 l 776 14 l 774 0 l 467 0 q 427 -8 392 -8 q 318 -8 257 20 q 196 48 154 96 q 112 145 93 210 q 74 275 85 349 z"},"w":{"x_min":0,"x_max":860,"ha":860,"o":"m 741 375 l 880 375 l 878 361 l 814 361 q 752 264 691 169 q 630 74 570 -23 l 472 251 l 298 -23 q 263 74 228 169 q 194 264 160 361 l 88 361 l 90 375 l 251 375 l 249 361 l 175 361 q 207 272 238 184 q 270 96 302 8 q 344 73 384 137 q 424 201 466 266 q 457 289 448 313 q 440 337 432 361 l 358 361 l 360 375 l 521 375 l 519 361 l 447 361 q 479 272 510 184 q 542 96 574 8 q 631 97 686 184 q 742 272 799 361 l 739 361 z"},"-":{"x_min":0,"x_max":300,"ha":300,"o":"m 52 184 l 53 198 l 237 198 l 236 184 z"},"E":{"x_min":0,"x_max":571,"ha":571,"o":"m 36 14 l 118 14 l 213 686 l 131 686 l 133 700 l 620 700 l 598 546 l 584 546 l 604 686 l 227 686 l 181 360 l 533 360 l 531 346 l 179 346 l 132 14 l 523 14 l 543 154 l 557 154 l 536 0 l 35 0 z"},"s":{"x_min":0,"x_max":315,"ha":315,"o":"m 82 91 l 74 32 q 94 15 121 10 q 148 6 173 6 q 188 6 206 12 q 224 18 240 30 q 257 41 269 58 q 281 75 284 98 q 288 129 276 146 q 264 163 243 172 q 222 182 197 189 q 172 196 151 206 q 130 215 118 232 q 105 249 109 280 q 112 304 124 322 q 135 340 151 353 q 167 366 186 372 q 205 379 224 379 q 224 379 236 379 q 247 379 262 376 q 278 373 294 367 q 310 361 319 349 l 310 284 l 296 284 l 304 343 q 296 352 282 356 q 269 361 256 363 q 243 365 232 365 q 222 365 220 365 q 207 365 192 361 q 177 357 163 348 q 149 338 138 322 q 127 307 124 285 q 119 256 132 240 q 144 225 165 216 q 186 206 212 200 q 237 193 258 182 q 279 171 292 152 q 304 134 299 101 q 296 82 286 62 q 277 43 260 28 q 244 12 221 2 q 198 -8 168 -8 q 163 -8 150 -7 q 136 -6 120 -3 q 103 0 86 7 q 70 14 59 26 l 68 91 z"},">":{"x_min":0,"x_max":650,"ha":650,"o":"m 79 -15 l 81 1 q 193 61 304 120 q 415 178 527 238 q 432 298 338 356 q 243 415 148 475 l 150 491 q 251 428 351 364 q 451 301 553 238 q 434 175 316 112 q 198 48 79 -15 z"},"l":{"x_min":0,"x_max":244,"ha":244,"o":"m 36 14 l 108 14 l 210 736 l 137 736 l 139 750 l 226 750 l 122 14 l 210 14 l 209 0 l 35 0 z"},"8":{"x_min":0,"x_max":510,"ha":510,"o":"m 148 511 q 144 486 151 465 q 158 444 174 428 q 190 413 212 404 q 235 396 263 396 q 290 396 315 404 q 340 413 360 428 q 379 444 392 465 q 404 486 408 511 q 412 538 406 562 q 399 586 384 604 q 369 622 347 633 q 325 644 298 644 q 270 644 244 633 q 219 622 199 604 q 179 586 166 562 q 152 538 148 511 z m 48 195 q 43 157 52 122 q 62 88 84 62 q 105 36 137 20 q 169 5 208 5 q 248 5 285 20 q 322 36 352 62 q 382 88 402 122 q 422 157 427 195 q 433 234 422 268 q 412 301 389 326 q 366 352 333 366 q 300 381 260 381 q 221 381 185 366 q 149 352 120 326 q 92 301 73 268 q 54 234 48 195 z m 34 195 q 39 230 54 262 q 70 293 94 318 q 118 344 148 362 q 178 381 212 389 q 172 403 150 438 q 128 472 135 518 q 139 547 154 572 q 168 598 190 617 q 213 636 240 647 q 268 658 298 658 q 328 658 352 646 q 377 635 394 616 q 411 596 418 570 q 426 544 422 514 q 416 470 386 436 q 355 403 312 389 q 345 381 371 363 q 397 345 414 320 q 432 294 439 262 q 446 231 441 195 q 435 153 414 116 q 392 79 360 52 q 329 24 290 8 q 250 -8 208 -8 q 166 -8 132 8 q 97 24 74 52 q 50 79 39 116 q 28 153 34 195 z"},"\\":{"x_min":0,"x_max":320,"ha":320,"o":"m 84 736 q 127 546 170 358 q 212 171 255 -19 l 241 -19 q 198 171 156 358 q 113 546 70 736 z"},"e":{"x_min":0,"x_max":435,"ha":435,"o":"m 281 369 q 236 369 196 348 q 156 328 127 295 q 98 262 84 220 q 69 178 75 135 q 162 168 247 200 q 332 233 418 266 q 404 312 368 340 q 331 369 281 369 z m 435 259 q 345 224 256 190 q 168 157 78 122 q 91 71 132 40 q 172 8 230 8 q 266 8 300 21 q 334 34 361 57 q 363 54 365 52 q 367 49 369 46 q 339 22 304 8 q 268 -6 229 -6 q 188 -6 155 9 q 122 24 100 50 q 77 77 66 112 q 56 147 62 188 q 68 228 88 264 q 108 300 138 326 q 168 352 205 368 q 242 383 283 383 q 341 383 382 348 q 423 314 435 259 z"},"b":{"x_min":0,"x_max":532,"ha":532,"o":"m 37 14 l 110 14 l 212 736 l 139 736 l 141 750 l 228 750 l 167 321 q 165 306 163 290 q 161 275 159 260 q 188 314 241 348 q 294 383 357 383 q 397 383 430 368 q 464 352 486 326 q 509 300 520 264 q 530 228 524 188 q 518 147 498 112 q 478 77 448 50 q 418 24 380 9 q 343 -6 303 -6 q 240 -6 196 28 q 152 63 138 117 q 136 101 134 86 q 132 70 130 54 l 122 0 l 35 0 z m 510 188 q 515 225 506 258 q 496 291 475 316 q 454 341 423 355 q 392 369 355 369 q 317 369 282 355 q 248 341 220 316 q 192 291 173 258 q 154 225 149 188 q 144 150 154 118 q 163 85 184 60 q 205 36 236 22 q 266 8 304 8 q 341 8 376 22 q 411 36 439 60 q 467 85 486 118 q 505 150 510 188 z"},"%":{"x_min":0,"x_max":726,"ha":726,"o":"m 406 112 q 401 73 425 46 q 449 18 489 18 q 509 18 528 26 q 546 33 561 46 q 576 58 586 75 q 595 92 598 112 q 603 151 579 179 q 555 207 515 207 q 495 207 476 200 q 458 192 443 179 q 428 166 418 148 q 409 131 406 112 z m 487 4 q 464 4 446 12 q 427 21 414 36 q 401 50 395 70 q 389 90 392 113 q 395 135 406 155 q 418 175 435 190 q 452 204 473 212 q 494 221 517 221 q 539 221 558 212 q 577 204 590 190 q 603 175 609 155 q 615 135 612 113 q 609 90 598 70 q 586 50 568 36 q 551 21 530 12 q 509 4 487 4 z m 141 388 q 136 349 160 322 q 184 294 224 294 q 244 294 262 302 q 281 309 296 322 q 311 334 320 351 q 330 368 333 388 q 338 427 314 455 q 290 483 250 483 q 230 483 212 476 q 193 468 178 455 q 163 442 154 424 q 144 407 141 388 z m 222 280 q 199 280 180 288 q 162 297 149 312 q 136 326 130 346 q 124 366 127 389 q 130 411 142 431 q 153 451 170 466 q 187 480 208 488 q 229 497 252 497 q 274 497 293 488 q 312 480 325 466 q 338 451 344 431 q 350 411 347 389 q 344 366 332 346 q 320 326 303 312 q 286 297 265 288 q 244 280 222 280 z m 172 0 q 265 126 356 250 q 448 374 541 500 l 557 500 q 464 374 372 250 q 281 126 188 0 z"},"m":{"x_min":0,"x_max":800,"ha":800,"o":"m 592 14 l 671 14 l 708 277 q 712 313 691 340 q 670 366 626 368 q 593 368 562 358 q 530 347 504 328 q 479 309 461 283 q 443 257 437 226 l 407 14 l 488 14 l 487 0 l 313 0 l 314 14 l 393 14 l 430 277 q 434 313 413 340 q 392 366 348 368 q 314 368 282 357 q 250 346 224 326 q 198 307 180 280 q 163 252 158 220 l 129 14 l 210 14 l 209 0 l 35 0 l 36 14 l 115 14 l 164 361 l 89 361 l 91 375 l 174 375 l 169 322 q 167 309 166 300 q 165 290 163 277 q 190 324 238 353 q 286 382 343 382 q 392 382 418 354 q 445 327 444 282 q 471 327 518 354 q 566 382 621 382 q 674 382 700 351 q 727 320 721 270 l 685 14 l 766 14 l 765 0 l 591 0 z"},"#":{"x_min":0,"x_max":571,"ha":571,"o":"m 194 407 q 183 365 172 323 q 161 281 150 239 l 320 239 q 331 281 342 323 q 353 365 364 407 z m 258 0 q 273 57 287 112 q 301 168 316 225 l 146 225 q 131 168 117 112 q 103 57 88 0 l 74 0 q 89 57 103 112 q 117 168 132 225 l 15 225 q 16 229 16 232 q 17 235 18 239 l 136 239 q 147 281 158 323 q 169 365 180 407 l 64 407 q 64 411 65 414 q 66 417 66 421 l 183 421 q 198 477 212 532 q 227 587 242 643 l 256 643 q 241 587 226 532 q 212 477 197 421 l 367 421 q 382 477 396 532 q 411 587 426 643 l 440 643 q 425 587 410 532 q 396 477 381 421 l 517 421 q 517 417 516 414 q 515 411 515 407 l 378 407 q 367 365 356 323 q 345 281 334 239 l 469 239 q 468 235 468 232 q 467 229 466 225 l 330 225 q 315 168 301 112 q 287 57 272 0 z"},",":{"x_min":0,"x_max":200,"ha":200,"o":"m 141 86 q 112 34 84 -17 q 55 -68 26 -120 l 12 -120 q 39 -68 65 -17 q 91 34 118 86 z"},"n":{"x_min":0,"x_max":522,"ha":522,"o":"m 314 14 l 393 14 l 430 277 q 434 313 413 340 q 392 366 348 368 q 314 368 282 357 q 250 346 224 326 q 198 307 180 280 q 163 252 158 220 l 129 14 l 210 14 l 209 0 l 35 0 l 36 14 l 115 14 l 164 361 l 89 361 l 91 375 l 174 375 l 169 322 q 167 309 166 300 q 165 290 163 277 q 190 324 238 353 q 286 382 343 382 q 396 382 422 351 q 449 320 443 270 l 407 14 l 488 14 l 487 0 l 313 0 z"},"h":{"x_min":0,"x_max":522,"ha":522,"o":"m 314 14 l 393 14 l 430 277 q 434 313 413 340 q 392 366 348 368 q 314 368 282 357 q 250 346 224 326 q 198 307 180 280 q 163 252 158 220 l 129 14 l 210 14 l 209 0 l 35 0 l 36 14 l 115 14 l 217 736 l 144 736 l 146 750 l 233 750 l 173 322 l 163 277 q 190 324 238 353 q 286 382 343 382 q 396 382 422 351 q 449 320 443 270 l 407 14 l 488 14 l 487 0 l 313 0 z"},"z":{"x_min":0,"x_max":429,"ha":429,"o":"m 403 65 l 394 0 l 35 0 l 36 14 q 133 102 223 188 q 313 273 409 361 l 97 361 l 104 410 l 118 410 l 113 375 l 429 375 l 427 361 q 331 273 241 188 q 151 102 54 14 l 381 14 l 389 65 z"},"B":{"x_min":0,"x_max":516,"ha":516,"o":"m 36 14 l 107 14 l 202 686 l 131 686 l 133 700 l 349 700 q 394 700 430 690 q 466 680 490 659 q 514 638 524 604 q 534 571 527 525 q 519 463 481 416 q 443 369 376 352 q 406 346 432 332 q 457 318 476 296 q 494 274 502 245 q 511 216 506 180 q 500 135 478 102 q 455 68 422 46 q 389 23 350 12 q 310 0 269 0 l 35 0 z m 168 344 l 121 14 l 269 14 q 309 14 347 24 q 385 34 415 54 q 445 75 465 106 q 485 136 491 177 q 497 220 484 252 q 470 284 442 304 q 414 324 376 334 q 339 344 297 344 z m 216 686 l 170 358 l 317 358 q 357 358 390 370 q 424 383 450 406 q 476 428 492 459 q 509 490 514 528 q 520 570 511 600 q 502 630 482 649 q 461 668 430 677 q 398 686 359 686 z"},"K":{"x_min":0,"x_max":686,"ha":686,"o":"m 478 14 l 544 14 q 480 114 416 214 q 352 314 287 414 l 169 316 q 158 240 148 164 q 138 89 127 14 l 210 14 l 209 0 l 35 0 l 36 14 l 113 14 l 208 686 l 131 686 l 133 700 l 307 700 l 305 686 l 222 686 l 176 360 q 175 352 174 346 q 172 339 171 331 l 191 351 l 589 686 l 525 686 l 527 700 l 701 700 l 699 686 l 611 686 l 299 424 q 366 321 432 219 q 498 117 564 14 l 652 14 l 651 0 l 477 0 z"},"R":{"x_min":0,"x_max":569,"ha":569,"o":"m 36 14 l 107 14 l 202 686 l 131 686 l 133 700 l 344 700 q 373 700 406 690 q 440 680 467 659 q 494 638 510 604 q 526 570 519 522 q 509 453 464 406 q 418 360 342 346 l 451 14 l 535 14 l 534 0 l 442 0 l 327 344 q 304 341 279 341 l 167 341 l 121 14 l 210 14 l 209 0 l 35 0 z m 169 355 l 284 355 q 342 355 382 371 q 423 387 449 412 q 475 436 488 466 q 501 495 505 522 q 509 555 498 584 q 488 614 464 636 q 441 659 408 672 q 374 686 332 686 l 216 686 z"},"T":{"x_min":0,"x_max":623,"ha":623,"o":"m 226 14 l 305 14 l 400 686 l 145 686 l 125 546 l 111 546 l 133 700 l 686 700 l 664 546 l 650 546 l 670 686 l 414 686 l 319 14 l 400 14 l 399 0 l 225 0 z"},"P":{"x_min":0,"x_max":481,"ha":481,"o":"m 36 14 l 107 14 l 202 686 l 131 686 l 133 700 l 344 700 q 373 700 406 690 q 440 680 467 659 q 494 638 510 604 q 526 570 519 522 q 507 439 444 390 q 382 341 279 341 l 167 341 l 121 14 l 210 14 l 209 0 l 35 0 z m 169 355 l 284 355 q 342 355 382 371 q 423 387 449 412 q 475 436 488 466 q 501 495 505 522 q 509 555 498 584 q 488 614 464 636 q 441 659 408 672 q 374 686 332 686 l 216 686 z"},"|":{"x_min":0,"x_max":219,"ha":219,"o":"m 99 -232 l 229 700 l 243 700 l 113 -232 z"},"t":{"x_min":0,"x_max":300,"ha":300,"o":"m 210 619 l 224 619 l 190 375 l 317 375 l 315 361 l 188 361 l 139 14 l 226 14 l 225 0 l 124 0 l 174 361 l 85 361 l 87 375 l 176 375 z"},"M":{"x_min":0,"x_max":961,"ha":961,"o":"m 919 700 l 1019 700 l 1017 686 l 940 686 l 845 14 l 927 14 l 926 0 l 752 0 l 753 14 l 831 14 l 920 645 l 927 690 q 927 689 925 687 q 923 685 921 683 q 919 681 917 678 q 903 663 876 634 q 850 604 815 566 q 780 527 740 482 q 699 437 658 392 q 617 347 579 304 q 541 262 510 228 q 433 352 364 461 q 296 570 229 677 l 221 690 q 219 679 218 668 q 218 656 216 645 l 127 14 l 210 14 l 209 0 l 35 0 l 36 14 l 113 14 l 208 686 l 131 686 l 133 700 l 233 700 q 287 614 338 532 q 360 497 384 460 q 407 422 430 385 q 453 348 474 314 q 495 280 513 253 q 615 364 716 476 q 817 589 919 700 z"},"g":{"x_min":0,"x_max":533,"ha":533,"o":"m 501 375 l 585 375 l 583 361 l 509 361 l 456 -18 q 448 -74 428 -116 q 407 -159 378 -188 q 348 -217 312 -233 q 277 -249 239 -250 q 219 -249 198 -246 q 177 -243 158 -236 q 139 -229 122 -218 q 106 -207 96 -190 l 110 -183 q 130 -213 167 -224 q 204 -236 240 -236 q 274 -236 308 -221 q 341 -206 368 -178 q 396 -150 416 -110 q 435 -71 442 -22 l 452 54 q 454 70 457 86 q 460 101 462 117 q 433 63 380 28 q 326 -6 263 -6 q 222 -6 189 9 q 156 24 134 50 q 111 77 100 112 q 90 147 96 188 q 102 228 122 264 q 142 300 172 326 q 202 352 239 368 q 276 383 317 383 q 348 383 374 374 q 401 365 422 348 q 444 332 459 310 q 474 287 481 260 q 486 289 491 318 q 496 346 501 375 z m 110 188 q 105 150 114 118 q 124 85 145 60 q 166 36 196 22 q 227 8 265 8 q 302 8 337 22 q 372 36 400 60 q 428 85 447 118 q 466 150 471 188 q 476 225 466 258 q 457 291 436 316 q 415 341 384 355 q 352 369 315 369 q 277 369 242 355 q 208 341 180 316 q 152 291 134 258 q 115 225 110 188 z"},"j":{"x_min":0,"x_max":166,"ha":166,"o":"m 62 375 l 158 375 l 105 -7 q 97 -64 76 -108 q 54 -151 24 -180 l 13 -171 q 42 -143 62 -102 q 83 -62 90 -11 l 142 361 l 60 361 z m 149 500 q 150 508 157 514 q 164 520 172 520 q 180 520 185 514 q 190 508 189 500 q 187 492 180 486 q 174 480 166 480 q 158 480 152 486 q 147 492 149 500 z"},"i":{"x_min":0,"x_max":244,"ha":244,"o":"m 36 14 l 118 14 l 167 361 l 85 361 l 87 375 l 183 375 l 132 14 l 210 14 l 209 0 l 35 0 z m 174 500 q 175 508 182 514 q 189 520 197 520 q 205 520 210 514 q 215 508 214 500 q 212 492 206 486 q 199 480 191 480 q 183 480 178 486 q 172 492 174 500 z"},"y":{"x_min":0,"x_max":590,"ha":590,"o":"m 93 -236 l 174 -236 q 211 -178 248 -120 q 286 -61 323 -4 q 290 87 257 178 q 224 269 192 361 l 120 361 l 122 375 l 283 375 l 281 361 l 210 361 q 241 273 272 187 q 303 101 335 14 q 388 97 444 185 q 500 273 556 361 l 501 361 l 503 375 l 642 375 l 640 361 l 574 361 q 477 211 383 62 q 289 -86 193 -236 l 267 -236 l 266 -250 l 92 -250 z"},"@":{"x_min":0,"x_max":990,"ha":990,"o":"m 309 188 q 304 150 314 118 q 323 85 344 60 q 365 36 396 22 q 426 8 464 8 q 501 8 536 22 q 571 36 599 60 q 627 85 646 118 q 665 150 670 188 q 675 225 666 258 q 656 291 635 316 q 614 341 583 355 q 552 369 515 369 q 477 369 442 355 q 408 341 380 316 q 352 291 333 258 q 314 225 309 188 z m 884 188 q 874 129 857 92 q 840 55 818 34 q 796 14 772 7 q 747 0 722 0 l 644 0 l 652 54 q 654 70 656 86 q 659 101 661 117 q 632 63 578 28 q 525 -6 462 -6 q 421 -6 388 9 q 355 24 332 50 q 310 77 300 112 q 289 147 295 188 q 301 228 321 264 q 341 300 371 326 q 401 352 438 368 q 476 383 517 383 q 579 383 622 348 q 666 314 680 260 q 685 289 690 318 q 695 346 701 375 l 711 375 l 660 13 l 731 13 q 785 13 820 55 q 855 97 870 188 q 881 267 861 337 q 841 407 796 459 q 752 511 686 541 q 621 571 542 571 q 463 571 390 541 q 316 511 257 459 q 198 407 158 337 q 118 267 107 188 q 96 109 116 40 q 137 -30 181 -82 q 225 -133 290 -163 q 356 -193 435 -193 q 497 -193 555 -174 q 613 -155 664 -123 q 666 -126 668 -128 q 669 -131 671 -134 q 617 -168 558 -188 q 499 -207 433 -207 q 351 -207 284 -176 q 216 -145 170 -91 q 124 -37 103 35 q 82 107 94 189 q 105 271 146 343 q 187 415 248 469 q 310 523 386 554 q 462 585 544 585 q 626 585 694 554 q 762 523 808 469 q 854 415 875 342 q 896 270 884 188 z"},".":{"x_min":0,"x_max":163,"ha":163,"o":"m 66 20 q 67 28 74 34 q 80 40 88 40 q 96 40 102 34 q 107 28 106 20 q 104 12 98 6 q 91 0 83 0 q 75 0 70 6 q 64 12 66 20 z"},"p":{"x_min":0,"x_max":532,"ha":532,"o":"m -1 -236 l 64 -236 l 148 361 l 75 361 l 77 375 l 160 375 q 156 346 154 316 q 151 286 146 257 q 161 284 182 307 q 203 330 230 346 q 256 363 286 372 q 315 381 346 381 q 386 381 420 366 q 453 351 476 324 q 498 298 508 262 q 519 227 513 187 q 507 146 486 110 q 466 75 436 49 q 406 23 368 8 q 331 -8 291 -8 q 228 -8 184 26 q 141 61 127 115 l 121 61 l 79 -236 l 172 -236 l 171 -250 l -2 -250 z m 499 187 q 504 224 494 257 q 485 290 464 314 q 443 339 412 353 q 381 367 344 367 q 306 367 272 353 q 237 339 209 314 q 181 290 162 257 q 143 224 138 187 q 133 149 142 116 q 152 84 173 59 q 194 34 224 20 q 255 6 293 6 q 330 6 365 20 q 400 34 428 59 q 456 84 475 116 q 494 149 499 187 z"},"X":{"x_min":0,"x_max":710,"ha":710,"o":"m 133 700 l 307 700 l 305 686 l 246 686 q 286 609 324 533 q 363 457 402 381 l 408 368 l 418 381 l 656 686 l 597 686 l 599 700 l 773 700 l 771 686 l 672 686 q 607 602 543 520 q 479 439 415 356 q 458 269 502 184 q 545 100 589 14 l 676 14 l 675 0 l 501 0 l 502 14 l 572 14 l 436 279 q 427 296 419 314 q 411 332 401 348 l 392 335 q 329 254 266 174 q 203 95 140 14 l 210 14 l 209 0 l 35 0 l 36 14 l 125 14 l 395 360 l 230 686 l 131 686 z"},"*":{"x_min":0,"x_max":335,"ha":335,"o":"m 181 575 q 207 559 232 543 q 258 527 284 511 q 282 507 279 504 q 276 500 273 496 l 171 562 q 166 530 161 498 q 156 466 151 434 l 137 434 l 155 561 q 125 545 96 530 q 66 514 36 498 l 30 513 q 59 529 89 544 q 119 560 149 576 q 123 593 98 609 q 74 625 48 642 q 50 645 52 648 q 54 651 56 654 q 82 637 108 622 q 133 606 159 589 l 178 720 l 196 720 q 190 687 185 654 q 180 622 175 589 q 206 605 236 621 q 267 637 298 653 q 302 645 303 641 q 272 624 242 608 q 212 592 181 575 z"},"Y":{"x_min":0,"x_max":718,"ha":718,"o":"m 274 14 l 353 14 l 388 262 q 339 368 290 474 q 242 580 193 686 l 131 686 l 133 700 l 307 700 l 305 686 l 210 686 q 255 588 300 492 q 345 396 388 298 l 397 272 l 398 272 l 412 298 l 698 686 l 605 686 l 607 700 l 781 700 l 779 686 l 715 686 q 637 579 558 474 q 480 368 402 262 l 367 14 l 448 14 l 447 0 l 273 0 z"},"c":{"x_min":0,"x_max":387,"ha":387,"o":"m 358 37 q 329 17 296 6 q 264 -6 229 -6 q 188 -6 155 9 q 122 24 100 50 q 77 77 66 112 q 56 147 62 188 q 68 228 88 264 q 108 300 138 326 q 168 352 205 368 q 242 383 283 383 q 318 383 348 372 q 378 360 400 340 l 388 253 l 374 253 l 385 332 q 364 349 338 359 q 312 369 281 369 q 243 369 208 355 q 174 341 146 316 q 118 291 100 258 q 81 225 76 188 q 71 150 80 118 q 89 85 110 60 q 131 36 162 22 q 192 8 230 8 q 262 8 292 18 q 323 29 349 47 z"},"!":{"x_min":0,"x_max":201,"ha":201,"o":"m 49 36 q 42 36 37 42 q 32 48 33 56 q 34 65 41 70 q 48 76 55 76 q 63 76 68 70 q 73 65 72 56 q 71 48 64 42 q 57 36 49 36 z m 143 750 l 157 750 l 75 166 l 61 166 z"},"/":{"x_min":0,"x_max":322,"ha":322,"o":"m -36 -19 q 61 171 156 358 q 251 546 348 736 l 362 736 q 265 546 170 358 q 75 171 -22 -19 z"},"[":{"x_min":0,"x_max":338,"ha":338,"o":"m 20 -149 l 145 746 l 308 746 l 306 732 l 159 732 l 38 -135 l 185 -135 l 183 -149 z"},"6":{"x_min":0,"x_max":520,"ha":520,"o":"m 46 193 q 40 154 50 120 q 60 86 82 60 q 105 35 138 20 q 170 6 209 6 q 248 6 285 20 q 322 35 352 60 q 381 86 401 120 q 421 154 427 193 q 432 232 422 266 q 412 300 390 326 q 367 351 334 366 q 301 381 262 381 q 223 381 186 366 q 149 351 120 326 q 91 300 71 266 q 51 232 46 193 z m 33 193 q 43 266 82 328 q 122 391 178 445 q 234 499 300 546 q 365 592 427 633 q 430 626 435 620 q 362 576 305 533 q 248 490 206 450 q 163 411 134 376 q 106 342 91 314 q 124 351 169 373 q 214 395 265 395 q 307 395 342 379 q 377 363 401 336 q 425 308 436 272 q 447 235 441 193 q 435 151 414 114 q 392 78 360 51 q 329 24 290 8 q 250 -8 208 -8 q 166 -8 131 8 q 96 24 72 51 q 48 78 38 114 q 27 151 33 193 z"},"r":{"x_min":0,"x_max":326,"ha":326,"o":"m 36 14 l 115 14 l 164 361 l 89 361 l 91 375 l 174 375 l 169 322 q 167 309 166 300 q 165 290 163 277 q 191 325 239 352 q 287 380 344 382 l 342 368 q 309 367 278 356 q 247 344 222 324 q 197 305 180 278 q 162 251 158 220 l 129 14 l 210 14 l 209 0 l 35 0 z"},"2":{"x_min":0,"x_max":495,"ha":495,"o":"m 44 14 l 390 14 l 406 127 l 420 127 l 402 0 l 6 0 q 79 62 148 122 q 217 183 272 240 q 327 298 363 352 q 399 405 406 452 q 414 508 404 545 q 393 582 372 604 q 351 626 324 635 q 297 644 272 644 q 222 644 188 626 q 154 609 132 582 q 110 556 98 526 q 87 495 83 469 q 73 399 107 355 l 97 347 q 80 371 72 400 q 64 428 69 469 q 75 509 92 544 q 108 578 134 604 q 160 629 196 644 q 231 658 274 658 q 313 658 343 644 q 373 629 392 603 q 412 577 420 542 q 427 506 421 464 q 413 406 376 348 q 338 291 284 235 q 230 179 167 124 q 104 68 44 14 z"},"{":{"x_min":0,"x_max":272,"ha":272,"o":"m 91 287 l 95 311 q 119 312 136 326 q 154 339 166 359 q 177 379 184 402 q 190 426 193 446 l 218 628 q 224 673 235 698 q 246 722 260 732 q 273 743 289 744 q 305 746 321 746 l 358 746 l 356 732 l 299 732 q 268 732 254 706 q 239 680 231 620 l 210 470 q 203 423 194 393 q 184 363 172 344 q 161 326 148 316 q 134 306 120 299 q 132 291 142 281 q 153 271 160 252 q 166 233 167 204 q 168 174 162 128 l 141 -22 q 133 -82 140 -108 q 146 -134 177 -134 l 234 -134 l 232 -148 l 195 -148 q 175 -148 160 -146 q 144 -144 135 -130 q 126 -116 124 -84 q 123 -53 131 6 l 151 152 q 154 172 154 196 q 154 219 148 239 q 142 259 128 272 q 115 286 91 287 z"},"9":{"x_min":0,"x_max":525,"ha":525,"o":"m 466 432 q 472 471 462 505 q 452 539 430 564 q 407 590 374 604 q 342 619 303 619 q 264 619 227 604 q 190 590 160 564 q 131 539 111 505 q 91 471 85 432 q 80 393 90 358 q 100 324 122 298 q 145 273 178 258 q 211 244 250 244 q 289 244 326 258 q 363 273 392 298 q 421 324 441 358 q 461 393 466 432 z m 479 432 q 469 359 430 296 q 390 234 334 180 q 278 126 212 80 q 147 33 85 -8 q 81 -1 77 5 q 150 49 207 92 q 264 135 306 174 q 349 214 378 248 q 406 283 421 311 q 388 274 343 252 q 298 230 247 230 q 205 230 170 246 q 135 262 111 290 q 87 317 76 354 q 65 390 71 432 q 77 474 98 510 q 120 547 152 574 q 183 601 222 617 q 262 633 304 633 q 346 633 381 617 q 416 601 440 574 q 464 547 474 510 q 485 474 479 432 z"}," ":{"x_min":0,"x_max":300,"ha":300,"o":""},"I":{"x_min":0,"x_max":244,"ha":244,"o":"m 36 14 l 113 14 l 208 686 l 131 686 l 133 700 l 307 700 l 305 686 l 222 686 l 127 14 l 210 14 l 209 0 l 35 0 z"},"H":{"x_min":0,"x_max":716,"ha":716,"o":"m 605 700 l 779 700 l 777 686 l 700 686 l 605 14 l 682 14 l 681 0 l 507 0 l 508 14 l 591 14 l 638 346 l 174 346 l 127 14 l 210 14 l 209 0 l 35 0 l 36 14 l 113 14 l 208 686 l 131 686 l 133 700 l 307 700 l 305 686 l 222 686 l 176 360 l 640 360 l 686 686 l 603 686 z"},"4":{"x_min":0,"x_max":505,"ha":505,"o":"m 267 14 l 344 14 l 368 183 l 16 183 l 449 658 l 384 197 l 481 197 l 479 183 l 382 183 l 358 14 l 441 14 l 439 0 l 265 0 z m 429 617 l 48 197 l 370 197 z"},"~":{"x_min":0,"x_max":489,"ha":489,"o":"m 270 497 q 256 515 245 521 q 234 527 220 527 q 212 527 201 524 q 190 522 180 516 q 169 510 160 500 q 150 489 146 472 q 143 473 140 473 q 136 473 134 474 q 141 511 169 526 q 197 541 225 541 q 245 541 260 530 q 275 520 289 503 q 302 485 313 479 q 324 473 338 473 q 346 473 357 476 q 368 478 379 484 q 390 490 399 500 q 408 511 412 528 q 415 527 418 527 q 422 527 425 526 q 417 489 390 474 q 362 459 334 459 q 314 459 299 470 q 284 480 270 497 z"},"D":{"x_min":0,"x_max":632,"ha":632,"o":"m 36 14 l 109 14 l 204 686 l 131 686 l 133 700 l 343 700 q 415 700 476 676 q 536 651 578 606 q 619 560 638 495 q 657 430 646 350 q 637 291 608 229 q 579 167 526 116 q 473 65 395 32 q 317 0 211 0 l 35 0 z m 218 686 l 123 14 l 221 14 q 320 14 394 46 q 468 77 518 126 q 568 174 596 234 q 625 293 633 350 q 644 427 626 490 q 608 552 568 596 q 529 639 472 662 q 414 686 347 686 z"},"^":{"x_min":0,"x_max":470,"ha":470,"o":"m 244 660 q 268 615 292 570 q 315 524 339 479 l 323 479 q 302 517 282 556 q 261 595 240 633 q 208 595 178 556 q 147 517 115 479 l 99 479 q 135 524 172 570 q 208 615 244 660 z"},"0":{"x_min":0,"x_max":616,"ha":616,"o":"m 36 327 q 43 375 66 432 q 88 490 127 540 q 166 591 222 624 q 279 658 354 658 q 428 658 474 624 q 520 589 544 538 q 568 488 574 430 q 579 372 572 324 q 562 255 532 194 q 501 134 458 89 q 415 44 362 18 q 309 -7 254 -7 q 199 -7 154 20 q 110 46 80 91 q 50 136 38 196 q 26 257 36 327 z m 51 328 q 40 255 53 196 q 66 137 96 95 q 125 53 168 30 q 210 7 258 7 q 306 7 355 29 q 404 51 446 92 q 487 133 517 192 q 547 251 558 323 q 569 396 558 456 q 547 515 519 556 q 491 598 448 621 q 405 644 351 644 q 297 644 248 622 q 198 601 158 560 q 118 518 90 460 q 61 401 51 328 z"},"F":{"x_min":0,"x_max":557,"ha":557,"o":"m 36 14 l 118 14 l 213 686 l 131 686 l 133 700 l 620 700 l 598 546 l 584 546 l 604 686 l 227 686 l 181 360 l 533 360 l 531 346 l 179 346 l 132 14 l 210 14 l 209 0 l 35 0 z"},"`":{"x_min":0,"x_max":200,"ha":200,"o":"m 11 612 q 29 579 46 546 q 64 512 82 479 l 66 479 q 48 512 30 546 q 13 579 -4 612 z"},"k":{"x_min":0,"x_max":487,"ha":487,"o":"m 279 14 l 352 14 q 320 67 288 119 q 257 171 226 225 l 142 155 l 122 14 l 210 14 l 209 0 l 35 0 l 36 14 l 108 14 l 210 736 l 137 736 l 139 750 l 226 750 l 145 176 l 369 361 l 293 361 l 295 375 l 469 375 l 467 361 l 388 361 q 367 343 350 328 q 332 313 314 298 q 297 283 279 268 q 261 253 240 235 q 272 179 305 124 q 338 69 370 14 l 453 14 l 452 0 l 278 0 z"},"u":{"x_min":0,"x_max":518,"ha":518,"o":"m 88 375 l 181 375 l 142 98 q 139 62 160 36 q 181 9 224 7 q 258 7 290 18 q 322 29 348 48 q 374 68 392 96 q 409 123 414 155 l 443 361 l 364 361 l 366 375 l 459 375 l 408 14 l 485 14 l 483 0 l 400 0 l 405 53 l 409 98 q 382 50 334 22 q 286 -7 230 -7 q 177 -7 150 24 q 124 55 129 105 l 165 361 l 86 361 z"},"]":{"x_min":0,"x_max":342,"ha":342,"o":"m 313 746 l 188 -149 l 25 -149 l 27 -135 l 174 -135 l 295 732 l 148 732 l 150 746 z"},"U":{"x_min":0,"x_max":674,"ha":674,"o":"m 134 700 l 308 700 l 306 686 l 223 686 l 159 229 q 151 175 161 134 q 171 92 195 64 q 219 35 256 20 q 292 6 338 6 q 383 6 424 20 q 465 35 498 64 q 530 92 552 134 q 573 175 581 229 l 645 686 l 562 686 l 564 700 l 738 700 l 736 686 l 659 686 l 594 226 q 586 169 563 125 q 540 81 506 52 q 471 22 428 7 q 385 -8 337 -8 q 289 -8 250 7 q 210 22 184 52 q 158 81 147 125 q 136 169 144 226 l 209 686 l 132 686 z"},"o":{"x_min":0,"x_max":461,"ha":461,"o":"m 63 188 q 69 228 89 264 q 109 300 139 326 q 169 353 206 368 q 243 384 284 384 q 324 384 358 368 q 392 353 415 326 q 438 300 448 264 q 459 228 453 188 q 447 147 427 112 q 407 77 376 50 q 346 24 308 9 q 270 -6 230 -6 q 189 -6 156 9 q 123 24 100 50 q 78 77 68 112 q 57 147 63 188 z m 77 188 q 72 150 81 118 q 90 85 111 60 q 132 36 162 22 q 193 8 231 8 q 268 8 304 22 q 339 36 367 60 q 395 85 414 118 q 433 150 438 188 q 443 225 434 258 q 424 291 403 316 q 382 341 350 355 q 319 369 282 369 q 244 369 210 355 q 175 341 147 316 q 119 291 100 258 q 82 225 77 188 z"},"N":{"x_min":0,"x_max":840,"ha":840,"o":"m 41 14 l 118 14 l 212 686 l 135 686 l 137 700 l 240 700 l 701 28 l 716 2 l 718 34 l 809 686 l 731 686 l 733 700 l 907 700 l 905 686 l 823 686 l 723 -32 l 240 670 l 225 690 l 223 664 l 132 14 l 215 14 l 213 0 l 39 0 z"},"+":{"x_min":0,"x_max":543,"ha":543,"o":"m 233 51 l 258 225 l 85 225 l 87 239 l 260 239 l 284 411 l 298 411 l 274 239 l 447 239 l 445 225 l 272 225 l 247 51 z"},"G":{"x_min":0,"x_max":609,"ha":609,"o":"m 565 298 l 529 40 q 486 17 439 4 q 392 -10 341 -10 q 267 -10 206 18 q 145 46 103 94 q 61 143 42 208 q 23 273 33 347 q 43 421 80 486 q 118 552 174 600 q 229 649 298 678 q 367 706 441 706 q 492 706 536 693 q 579 680 617 656 l 607 644 q 572 667 530 680 q 487 692 439 692 q 368 692 302 664 q 235 637 182 590 q 129 543 93 480 q 57 417 47 346 q 37 275 55 213 q 73 151 113 104 q 153 58 211 31 q 269 4 339 4 q 386 4 430 16 q 474 27 516 49 l 550 284 l 378 284 l 379 298 z"},"q":{"x_min":0,"x_max":532,"ha":532,"o":"m 322 -236 l 410 -236 l 452 61 l 461 115 q 432 61 379 26 q 326 -8 263 -8 q 222 -8 189 8 q 156 23 134 49 q 111 75 100 110 q 90 146 96 187 q 102 227 122 262 q 142 298 172 324 q 202 351 239 366 q 276 381 317 381 q 380 381 424 346 q 468 312 482 257 q 486 286 492 316 q 497 346 501 375 l 584 375 l 582 361 l 509 361 l 425 -236 l 496 -236 l 495 -250 l 321 -250 z m 110 187 q 105 149 114 116 q 123 84 144 59 q 165 34 196 20 q 226 6 264 6 q 301 6 336 20 q 372 34 400 59 q 428 84 447 116 q 466 149 471 187 q 476 224 466 257 q 457 290 436 314 q 415 339 384 353 q 352 367 315 367 q 277 367 242 353 q 208 339 180 314 q 152 290 134 257 q 115 224 110 187 z"},"d":{"x_min":0,"x_max":532,"ha":532,"o":"m 418 54 q 420 70 423 86 q 426 101 428 117 q 399 63 346 28 q 292 -6 229 -6 q 188 -6 155 9 q 122 24 100 50 q 77 77 66 112 q 56 147 62 188 q 68 228 88 264 q 108 300 138 326 q 168 352 205 368 q 242 383 283 383 q 346 383 390 348 q 433 314 447 260 q 452 290 456 320 q 459 349 464 379 l 514 736 l 441 736 l 443 750 l 530 750 l 426 14 l 499 14 l 497 0 l 410 0 z m 76 188 q 71 150 80 118 q 89 85 110 60 q 131 36 162 22 q 192 8 230 8 q 267 8 302 22 q 338 36 366 60 q 394 85 413 118 q 432 150 437 188 q 442 225 432 258 q 423 291 402 316 q 381 341 350 355 q 318 369 281 369 q 243 369 208 355 q 174 341 146 316 q 118 291 100 258 q 81 225 76 188 z"},"1":{"x_min":0,"x_max":249,"ha":249,"o":"m 23 14 l 103 14 l 190 636 l 77 636 l 79 650 l 206 650 l 117 14 l 197 14 l 195 0 l 21 0 z"},"5":{"x_min":0,"x_max":543,"ha":543,"o":"m 476 650 l 464 568 l 450 568 l 460 636 l 201 636 l 164 372 q 188 383 214 389 q 239 395 265 395 q 307 395 342 380 q 377 364 402 337 q 426 310 437 274 q 448 237 442 195 q 436 153 414 116 q 393 79 361 52 q 329 24 290 8 q 250 -8 208 -8 q 167 -8 134 7 q 100 22 76 48 l 89 58 q 109 33 140 20 q 170 6 208 6 q 248 6 285 21 q 322 36 352 62 q 382 88 402 122 q 422 157 428 195 q 433 234 422 268 q 412 301 390 326 q 367 352 334 366 q 301 381 261 381 q 226 381 196 370 q 165 358 145 341 l 189 650 z"}}}
